<?xml version="1.0" encoding="UTF-8"?> <svg xmlns="http://www.w3.org/2000/svg" xmlns:xlink="http://www.w3.org/1999/xlink" id="Layer_1" data-name="Layer 1" viewBox="0 0 279.7 72.89"><defs><style>.cls-1{fill:none;}.cls-2{clip-path:url(#clip-path);}.cls-3{fill:url(#linear-gradient);}.cls-4{clip-path:url(#clip-path-2);}.cls-5{fill:url(#linear-gradient-2);}.cls-6{clip-path:url(#clip-path-3);}.cls-7{fill:url(#linear-gradient-3);}.cls-8{fill:#fff;}.cls-9{fill:#d04b35;}.cls-10{fill:#0e8cc3;}</style><clipPath id="clip-path"><path class="cls-1" d="M24,14.11a28.32,28.32,0,0,0,3,48.38,9.39,9.39,0,0,1-3.42-12.15L33.23,31h0a63.06,63.06,0,0,1,6.92-10.34l-3.72-4.6A9.37,9.37,0,0,0,24,14.11"></path></clipPath><linearGradient id="linear-gradient" x1="-46.89" y1="1053.87" x2="-45.89" y2="1053.87" gradientTransform="matrix(0, -49.9, -49.9, 0, 52615.94, -2277.18)" gradientUnits="userSpaceOnUse"><stop offset="0" stop-color="#7ac2d6"></stop><stop offset="0.01" stop-color="#7ac2d6"></stop><stop offset="0.14" stop-color="#76c1d5"></stop><stop offset="0.28" stop-color="#6abed1"></stop><stop offset="0.42" stop-color="#56b8ca"></stop><stop offset="0.55" stop-color="#3bb0c0"></stop><stop offset="0.57" stop-color="#37afbf"></stop><stop offset="1" stop-color="#37afbf"></stop></linearGradient><clipPath id="clip-path-2"><path class="cls-1" d="M68.36,40.34c0-.05,0-.1,0-.15s0,.1,0,.15M33.23,31,23.59,50.34A9.39,9.39,0,0,0,27,62.49a28.33,28.33,0,0,0,13.14,3.25h0a28.35,28.35,0,0,0,28.19-25.4A9.4,9.4,0,0,1,59,48.71H40.15a6.65,6.65,0,0,1-1.35-.13,9.43,9.43,0,0,1-8.09-9.32c0-2.52,1.1-5.47,2.53-8.26Z"></path></clipPath><linearGradient id="linear-gradient-2" x1="-58.97" y1="1062.71" x2="-57.97" y2="1062.71" gradientTransform="matrix(45.77, 0, 0, -45.77, 2721.92, 48692.48)" gradientUnits="userSpaceOnUse"><stop offset="0" stop-color="#0e8cc3"></stop><stop offset="0.46" stop-color="#0e8cc3"></stop><stop offset="1" stop-color="#31a7d5"></stop></linearGradient><clipPath id="clip-path-3"><path class="cls-1" d="M24,14.11a9.38,9.38,0,0,1,12.42,1.95l3.73,4.61A62.16,62.16,0,0,1,47.08,31c1.44,2.79,2.53,5.74,2.53,8.26a9.43,9.43,0,0,1-8.1,9.32,6.34,6.34,0,0,1-1.32.13H59a9.38,9.38,0,0,0,9.35-8.52c.09-.92.14-1.85.14-2.8A28.32,28.32,0,0,0,24,14.11"></path></clipPath><linearGradient id="linear-gradient-3" x1="-44.32" y1="1054.38" x2="-43.32" y2="1054.38" gradientTransform="matrix(0, -39.67, -39.67, 0, 41871, -1709.5)" gradientUnits="userSpaceOnUse"><stop offset="0" stop-color="#adcbec"></stop><stop offset="0.52" stop-color="#adcbec"></stop><stop offset="0.54" stop-color="#afccec"></stop><stop offset="0.69" stop-color="#c3d8f1"></stop><stop offset="0.84" stop-color="#cfdff3"></stop><stop offset="0.99" stop-color="#d3e1f4"></stop><stop offset="1" stop-color="#d3e1f4"></stop></linearGradient></defs><g class="cls-2"><rect class="cls-3" x="11.82" y="12.58" width="28.34" height="49.9"></rect></g><g class="cls-4"><rect class="cls-5" x="21.41" y="31" width="46.96" height="34.74"></rect></g><g class="cls-6"><rect class="cls-7" x="24.02" y="9.04" width="44.49" height="39.67"></rect></g><path class="cls-8" d="M47.08,31a62.16,62.16,0,0,0-6.91-10.33h0A63.06,63.06,0,0,0,33.24,31c-1.43,2.8-2.53,5.74-2.53,8.27a9.43,9.43,0,0,0,8.09,9.31,6.65,6.65,0,0,0,1.35.13h0a6.34,6.34,0,0,0,1.32-.13,9.43,9.43,0,0,0,8.1-9.31c0-2.53-1.09-5.47-2.53-8.27"></path><polygon class="cls-9" points="41.61 36.6 41.61 33.11 38.71 33.11 38.71 36.6 35.23 36.6 35.23 39.5 38.71 39.5 38.71 42.99 41.61 42.99 41.61 39.5 45.1 39.5 45.1 36.6 41.61 36.6"></polygon><path class="cls-10" d="M105,52.12A14.42,14.42,0,0,1,90.19,37.39,14.42,14.42,0,0,1,105,22.66a14.91,14.91,0,0,1,3.74.46,14.44,14.44,0,0,1,3.38,1.34,13.45,13.45,0,0,1,2.85,2.1,13.86,13.86,0,0,1,2.21,2.78l-4.82,2.79a7.32,7.32,0,0,0-3-3,9.8,9.8,0,0,0-11,1.54,9.37,9.37,0,0,0-2.51,6.72,9.29,9.29,0,0,0,2.51,6.68A9,9,0,0,0,105,46.66a9.06,9.06,0,0,0,4.39-1.07,7.25,7.25,0,0,0,3-2.94l4.82,2.8a14.09,14.09,0,0,1-2.21,2.77,13.45,13.45,0,0,1-2.85,2.1,14.44,14.44,0,0,1-3.38,1.34,14.91,14.91,0,0,1-3.74.46"></path><polygon class="cls-10" points="132.84 46.21 141.78 46.21 141.78 51.56 127.25 51.56 127.25 23.23 132.84 23.23 132.84 46.21"></polygon><rect class="cls-10" x="150.89" y="23.23" width="5.58" height="28.33"></rect><polygon class="cls-10" points="185.32 23.23 190.91 23.23 190.91 51.56 186.66 51.56 174.52 34.23 174.52 51.56 168.93 51.56 168.93 23.23 173.18 23.23 185.32 40.51 185.32 23.23"></polygon><rect class="cls-10" x="203.62" y="23.23" width="5.59" height="28.33"></rect><path class="cls-10" d="M231.48,52.12a12.74,12.74,0,0,1-7.1-1.86,10,10,0,0,1-4-5.14l4.78-2.79a6.35,6.35,0,0,0,6.51,4.33,5.56,5.56,0,0,0,3.44-.85,2.62,2.62,0,0,0,1.1-2.15,2.56,2.56,0,0,0-1.34-2.3,19.35,19.35,0,0,0-4.77-1.82,29,29,0,0,1-3.22-1.14,13.62,13.62,0,0,1-2.65-1.49,6.74,6.74,0,0,1-2.67-5.83A7.46,7.46,0,0,1,224.24,25a9.81,9.81,0,0,1,6.59-2.31A10.74,10.74,0,0,1,241,29l-4.69,2.71a5.67,5.67,0,0,0-5.43-3.64,4.31,4.31,0,0,0-2.73.79,2.51,2.51,0,0,0-1,2.05,2.66,2.66,0,0,0,1.09,2.18,16.25,16.25,0,0,0,4.29,1.78l1.95.65a7.09,7.09,0,0,1,.79.26c.31.12.65.26,1,.43a7.61,7.61,0,0,1,1.78.85,12.73,12.73,0,0,1,1.46,1.09,5.18,5.18,0,0,1,1.21,1.42,7,7,0,0,1,.75,1.76,7.93,7.93,0,0,1,.3,2.24,7.6,7.6,0,0,1-2.87,6.24,11.53,11.53,0,0,1-7.41,2.3"></path><path class="cls-10" d="M261.13,52.12a12.74,12.74,0,0,1-7.1-1.86,10,10,0,0,1-4-5.14l4.78-2.79a6.37,6.37,0,0,0,6.52,4.33,5.6,5.6,0,0,0,3.44-.85,2.64,2.64,0,0,0,1.09-2.15,2.56,2.56,0,0,0-1.34-2.3,19.35,19.35,0,0,0-4.77-1.82,29.71,29.71,0,0,1-3.22-1.14,13.62,13.62,0,0,1-2.65-1.49,6.74,6.74,0,0,1-2.67-5.83A7.46,7.46,0,0,1,253.89,25a9.84,9.84,0,0,1,6.6-2.31A10.74,10.74,0,0,1,270.6,29l-4.69,2.71a5.66,5.66,0,0,0-5.42-3.64,4.36,4.36,0,0,0-2.74.79,2.51,2.51,0,0,0-1,2.05,2.66,2.66,0,0,0,1.09,2.18,16.2,16.2,0,0,0,4.3,1.78l1.94.65a6.48,6.48,0,0,1,.79.26c.31.12.65.26,1,.43a7.61,7.61,0,0,1,1.78.85,12.73,12.73,0,0,1,1.46,1.09,5.18,5.18,0,0,1,1.21,1.42,7,7,0,0,1,.75,1.76,7.93,7.93,0,0,1,.3,2.24,7.57,7.57,0,0,1-2.87,6.24,11.51,11.51,0,0,1-7.41,2.3"></path></svg> 