<?xml version="1.0" encoding="UTF-8"?> <svg xmlns="http://www.w3.org/2000/svg" xmlns:xlink="http://www.w3.org/1999/xlink" id="Layer_1" data-name="Layer 1" viewBox="0 0 279.15 130.61"><defs><style>.cls-1{fill:none;}.cls-2{clip-path:url(#clip-path);}.cls-3{fill:url(#linear-gradient);}.cls-4{clip-path:url(#clip-path-2);}.cls-5{fill:url(#linear-gradient-2);}.cls-6{clip-path:url(#clip-path-3);}.cls-7{fill:url(#linear-gradient-3);}.cls-8{clip-path:url(#clip-path-4);}.cls-9{fill:#fff;}.cls-10{fill:#d04b35;}.cls-11{fill:#0e8cc3;}</style><clipPath id="clip-path"><path class="cls-1" d="M37.55,28.77a21.24,21.24,0,0,0,2.24,36.28,7,7,0,0,1-2.57-9.11l7.23-14.5h0a47.2,47.2,0,0,1,5.19-7.76l-2.79-3.45a7,7,0,0,0-9.31-1.46"></path></clipPath><linearGradient id="linear-gradient" x1="-472.22" y1="841.5" x2="-471.22" y2="841.5" gradientTransform="matrix(0, -37.43, -37.43, 0, 31533.32, -17608.26)" gradientUnits="userSpaceOnUse"><stop offset="0" stop-color="#7ac2d6"></stop><stop offset="0.01" stop-color="#7ac2d6"></stop><stop offset="0.14" stop-color="#76c1d5"></stop><stop offset="0.28" stop-color="#6abed1"></stop><stop offset="0.42" stop-color="#56b8ca"></stop><stop offset="0.55" stop-color="#3bb0c0"></stop><stop offset="0.57" stop-color="#37afbf"></stop><stop offset="1" stop-color="#37afbf"></stop></linearGradient><clipPath id="clip-path-2"><path class="cls-1" d="M70.8,48.44s0-.07,0-.11,0,.08,0,.11m-26.35-7-7.23,14.5a7,7,0,0,0,2.57,9.11,21.09,21.09,0,0,0,9.85,2.44h0a21.27,21.27,0,0,0,21.14-19,7,7,0,0,1-7,6.28H49.64a5,5,0,0,1-1-.1,7.07,7.07,0,0,1-6.06-7,14.6,14.6,0,0,1,1.89-6.2Z"></path></clipPath><linearGradient id="linear-gradient-2" x1="-476.46" y1="865.33" x2="-475.46" y2="865.33" gradientTransform="matrix(34.33, 0, 0, -34.33, 16393.47, 29761.43)" gradientUnits="userSpaceOnUse"><stop offset="0" stop-color="#0e8cc3"></stop><stop offset="0.46" stop-color="#0e8cc3"></stop><stop offset="1" stop-color="#31a7d5"></stop></linearGradient><clipPath id="clip-path-3"><path class="cls-1" d="M37.55,28.77a7,7,0,0,1,9.31,1.46l2.8,3.46a47.2,47.2,0,0,1,5.18,7.75,14.48,14.48,0,0,1,1.9,6.2,7.07,7.07,0,0,1-6.08,7,4.62,4.62,0,0,1-1,.1H63.8a7,7,0,0,0,7-6.39,20.79,20.79,0,0,0,.11-2.1,21,21,0,0,0-.57-4.79,21.22,21.22,0,0,0-32.8-12.67"></path></clipPath><linearGradient id="linear-gradient-3" x1="-468.65" y1="839.24" x2="-467.65" y2="839.24" gradientTransform="matrix(0, -29.75, -29.75, 0, 25022.14, -13888.02)" gradientUnits="userSpaceOnUse"><stop offset="0" stop-color="#adcbec"></stop><stop offset="0.52" stop-color="#adcbec"></stop><stop offset="0.54" stop-color="#afccec"></stop><stop offset="0.69" stop-color="#c3d8f1"></stop><stop offset="0.84" stop-color="#cfdff3"></stop><stop offset="0.99" stop-color="#d3e1f4"></stop><stop offset="1" stop-color="#d3e1f4"></stop></linearGradient><clipPath id="clip-path-4"><rect class="cls-1" width="279.15" height="130.61"></rect></clipPath></defs><g class="cls-2"><rect class="cls-3" x="28.4" y="27.63" width="21.26" height="37.43"></rect></g><g class="cls-4"><rect class="cls-5" x="35.59" y="41.44" width="35.22" height="26.06"></rect></g><g class="cls-6"><rect class="cls-7" x="37.55" y="24.97" width="33.37" height="29.75"></rect></g><g class="cls-8"><path class="cls-9" d="M54.84,41.44a47.2,47.2,0,0,0-5.18-7.75h0a47.2,47.2,0,0,0-5.19,7.76,14.6,14.6,0,0,0-1.89,6.2,7.07,7.07,0,0,0,6.06,7,5,5,0,0,0,1,.1h0a4.62,4.62,0,0,0,1-.1,7.07,7.07,0,0,0,6.08-7,14.48,14.48,0,0,0-1.9-6.2"></path><polygon class="cls-10" points="50.74 45.64 50.74 43.02 48.56 43.02 48.56 45.64 45.95 45.64 45.95 47.81 48.56 47.81 48.56 50.43 50.74 50.43 50.74 47.81 53.36 47.81 53.36 45.64 50.74 45.64"></polygon><path class="cls-11" d="M98.25,57.28A10.83,10.83,0,0,1,87.17,46.23a10.83,10.83,0,0,1,11.08-11,11.33,11.33,0,0,1,2.81.35,10.94,10.94,0,0,1,2.53,1,10.13,10.13,0,0,1,2.14,1.58,10.47,10.47,0,0,1,1.66,2.08l-3.62,2.09A5.38,5.38,0,0,0,101.53,40a7.35,7.35,0,0,0-8.29,1.15,7,7,0,0,0-1.88,5,7,7,0,0,0,1.88,5,7.33,7.33,0,0,0,8.3,1.14,5.43,5.43,0,0,0,2.23-2.2l3.62,2.09a10.47,10.47,0,0,1-1.66,2.08,10.13,10.13,0,0,1-2.14,1.58,10.94,10.94,0,0,1-2.53,1,11.33,11.33,0,0,1-2.81.35"></path><polygon class="cls-11" points="119.16 52.85 125.87 52.85 125.87 56.85 114.97 56.85 114.97 35.61 119.16 35.61 119.16 52.85"></polygon><rect class="cls-11" x="132.7" y="35.61" width="4.19" height="21.25"></rect><polygon class="cls-11" points="158.53 35.61 162.71 35.61 162.71 56.85 159.53 56.85 150.42 43.86 150.42 56.85 146.23 56.85 146.23 35.61 149.42 35.61 158.53 48.57 158.53 35.61"></polygon><rect class="cls-11" x="172.25" y="35.61" width="4.19" height="21.25"></rect><path class="cls-11" d="M193.14,57.28a9.53,9.53,0,0,1-5.32-1.4,7.42,7.42,0,0,1-3-3.85l3.58-2.1a4.77,4.77,0,0,0,4.88,3.25,4.15,4.15,0,0,0,2.58-.64,1.94,1.94,0,0,0,.82-1.6,1.9,1.9,0,0,0-1-1.73,14.82,14.82,0,0,0-3.58-1.37,21.68,21.68,0,0,1-2.41-.85,10.52,10.52,0,0,1-2-1.12,5.06,5.06,0,0,1-2-4.38,5.59,5.59,0,0,1,2-4.58,7.39,7.39,0,0,1,4.95-1.73A8.08,8.08,0,0,1,200.25,40l-3.52,2a4.26,4.26,0,0,0-4.07-2.73,3.23,3.23,0,0,0-2,.59,1.87,1.87,0,0,0-.74,1.53,2,2,0,0,0,.81,1.64,12.27,12.27,0,0,0,3.22,1.34l1.46.48c.16.05.36.11.59.2l.78.32a5.9,5.9,0,0,1,1.33.64,8.59,8.59,0,0,1,1.09.82,3.79,3.79,0,0,1,.91,1.06,5.4,5.4,0,0,1,.57,1.32,6,6,0,0,1,.22,1.68,5.69,5.69,0,0,1-2.15,4.68,8.63,8.63,0,0,1-5.56,1.73"></path><path class="cls-11" d="M215.38,57.28a9.53,9.53,0,0,1-5.32-1.4A7.42,7.42,0,0,1,207,52l3.58-2.1a4.77,4.77,0,0,0,4.88,3.25,4.15,4.15,0,0,0,2.58-.64,1.94,1.94,0,0,0,.82-1.6,1.9,1.9,0,0,0-1-1.73,14.82,14.82,0,0,0-3.58-1.37,21.68,21.68,0,0,1-2.41-.85,10.52,10.52,0,0,1-2-1.12,5,5,0,0,1-2-4.38,5.59,5.59,0,0,1,2-4.58,7.38,7.38,0,0,1,5-1.73A8.11,8.11,0,0,1,222.49,40L219,42a4.23,4.23,0,0,0-4.06-2.73,3.23,3.23,0,0,0-2.05.59,1.88,1.88,0,0,0-.75,1.53,2,2,0,0,0,.82,1.64,12.27,12.27,0,0,0,3.22,1.34l1.46.48c.16.05.36.11.59.2l.77.32a5.8,5.8,0,0,1,1.34.64,8.59,8.59,0,0,1,1.09.82,3.79,3.79,0,0,1,.91,1.06,5,5,0,0,1,.56,1.32,6.19,6.19,0,0,1-1.92,6.36,8.63,8.63,0,0,1-5.56,1.73"></path></g><path class="cls-11" d="M135.35,73.87a2.21,2.21,0,0,0-.87.17,1.85,1.85,0,0,0-.66.47,2.45,2.45,0,0,0-.41.77,3.52,3.52,0,0,0-.14,1,3.41,3.41,0,0,0,.23,1.29,1.92,1.92,0,0,0,.69.84,2.16,2.16,0,0,0,1.15.29,3.51,3.51,0,0,0,.74-.07,7,7,0,0,0,.69-.16v.65a3.2,3.2,0,0,1-.69.19,6.82,6.82,0,0,1-.85.05A2.89,2.89,0,0,1,133.7,79a2.32,2.32,0,0,1-.92-1.08,3.93,3.93,0,0,1-.31-1.64,4.08,4.08,0,0,1,.19-1.24,2.66,2.66,0,0,1,.56-1,2.35,2.35,0,0,1,.9-.64,3.17,3.17,0,0,1,1.23-.22,4.26,4.26,0,0,1,.89.09,3.32,3.32,0,0,1,.77.26l-.3.64a6.25,6.25,0,0,0-.62-.23A2.94,2.94,0,0,0,135.35,73.87Z"></path><path class="cls-11" d="M139.94,79.29v-6h.76v5.33h2.62v.67Z"></path><path class="cls-11" d="M147.89,79.29h-2.17v-.44l.71-.16V73.9l-.71-.17v-.44h2.17v.44l-.71.17v4.79l.71.16Z"></path><path class="cls-11" d="M155.66,79.29h-.89l-3.2-5h0c0,.13,0,.28,0,.46s0,.36,0,.56,0,.4,0,.61v3.35h-.7v-6h.88l3.2,5h0c0-.09,0-.23,0-.41s0-.37,0-.58,0-.41,0-.59V73.29h.71Z"></path><path class="cls-11" d="M160.83,79.29h-2.17v-.44l.71-.16V73.9l-.71-.17v-.44h2.17v.44l-.7.17v4.79l.7.16Z"></path><path class="cls-11" d="M166.42,73.87a2.21,2.21,0,0,0-.87.17,1.81,1.81,0,0,0-.65.47,2.28,2.28,0,0,0-.42.77,3.52,3.52,0,0,0-.14,1,3.41,3.41,0,0,0,.23,1.29,1.92,1.92,0,0,0,.69.84,2.16,2.16,0,0,0,1.15.29,3.67,3.67,0,0,0,.75-.07c.23,0,.46-.1.69-.16v.65a3.46,3.46,0,0,1-.7.19,6.82,6.82,0,0,1-.85.05,2.89,2.89,0,0,1-1.53-.37,2.32,2.32,0,0,1-.92-1.08,4.34,4.34,0,0,1-.12-2.88,2.66,2.66,0,0,1,.56-1,2.35,2.35,0,0,1,.9-.64,3.19,3.19,0,0,1,1.24-.22,4.41,4.41,0,0,1,.89.09,3.23,3.23,0,0,1,.76.26l-.3.64a6.25,6.25,0,0,0-.62-.23A2.88,2.88,0,0,0,166.42,73.87Z"></path><path class="cls-11" d="M174.77,79.29l-.72-1.86h-2.37L171,79.29h-.76l2.34-6h.68l2.34,6ZM173.15,75s0-.13-.08-.25-.08-.24-.11-.36l-.09-.29-.09.34c0,.11-.06.22-.09.31l-.08.25-.68,1.81h1.9Z"></path><path class="cls-11" d="M178.23,79.29v-6H179v5.33h2.62v.67Z"></path><path class="cls-11" d="M190.19,73.29a3.53,3.53,0,0,1,1.23.19,1.49,1.49,0,0,1,.72.57,1.83,1.83,0,0,1,.23,1,1.75,1.75,0,0,1-.17.8,1.46,1.46,0,0,1-.45.5,2.47,2.47,0,0,1-.58.3l1.65,2.69h-.88l-1.46-2.48h-1.19v2.48h-.76v-6Zm0,.66h-.86v2.22h.9a1.59,1.59,0,0,0,1.07-.29,1.06,1.06,0,0,0,.33-.85,1.18,1.18,0,0,0-.15-.63.9.9,0,0,0-.48-.34A2.33,2.33,0,0,0,190.15,74Z"></path><path class="cls-11" d="M199.34,79.29H196v-6h3.35V74h-2.59v1.87h2.44v.65h-2.44v2.15h2.59Z"></path><path class="cls-11" d="M206.3,77.69a1.5,1.5,0,0,1-1,1.48,2.9,2.9,0,0,1-1.14.2c-.23,0-.44,0-.65,0a2.84,2.84,0,0,1-.55-.1,2.37,2.37,0,0,1-.45-.15v-.72a4.15,4.15,0,0,0,.75.24,4.08,4.08,0,0,0,.93.11,2,2,0,0,0,.75-.12,1,1,0,0,0,.45-.33.91.91,0,0,0,.15-.52.94.94,0,0,0-.12-.49,1.21,1.21,0,0,0-.44-.38,5.84,5.84,0,0,0-.85-.36,4.71,4.71,0,0,1-.67-.31,1.91,1.91,0,0,1-.49-.37,1.47,1.47,0,0,1-.29-.48,2,2,0,0,1-.09-.62,1.39,1.39,0,0,1,.24-.82,1.59,1.59,0,0,1,.68-.53,2.53,2.53,0,0,1,1-.18,4.32,4.32,0,0,1,.91.09,3.48,3.48,0,0,1,.75.25l-.24.64a4.38,4.38,0,0,0-.67-.22,2.8,2.8,0,0,0-.77-.1,1.65,1.65,0,0,0-.63.11.81.81,0,0,0-.37.31.78.78,0,0,0-.13.46.87.87,0,0,0,.13.5,1.05,1.05,0,0,0,.41.36,6.62,6.62,0,0,0,.77.35,4.74,4.74,0,0,1,.9.41,1.75,1.75,0,0,1,.55.53A1.47,1.47,0,0,1,206.3,77.69Z"></path><path class="cls-11" d="M213.09,79.29h-3.35v-6h3.35V74H210.5v1.87h2.44v.65H210.5v2.15h2.59Z"></path><path class="cls-11" d="M220.41,79.29l-.72-1.86h-2.38l-.71,1.86h-.77l2.35-6h.68l2.33,6ZM218.79,75s0-.13-.08-.25-.08-.24-.12-.36a1.7,1.7,0,0,0-.09-.29c0,.11-.05.22-.08.34s-.07.22-.1.31a2.5,2.5,0,0,1-.08.25l-.68,1.81h1.9Z"></path><path class="cls-11" d="M225.9,73.29a3.63,3.63,0,0,1,1.24.19,1.42,1.42,0,0,1,.71.57,1.74,1.74,0,0,1,.24,1,1.63,1.63,0,0,1-.18.8,1.46,1.46,0,0,1-.45.5,2.23,2.23,0,0,1-.57.3l1.64,2.69h-.88l-1.45-2.48H225v2.48h-.76v-6Zm0,.66H225v2.22h.89a1.57,1.57,0,0,0,1.07-.29,1,1,0,0,0,.34-.85,1.09,1.09,0,0,0-.16-.63.84.84,0,0,0-.47-.34A2.43,2.43,0,0,0,225.86,74Z"></path><path class="cls-11" d="M234.28,73.87a2.21,2.21,0,0,0-.87.17,1.9,1.9,0,0,0-.65.47,2.1,2.1,0,0,0-.41.77,3.2,3.2,0,0,0-.15,1,3.41,3.41,0,0,0,.23,1.29,1.92,1.92,0,0,0,.69.84,2.16,2.16,0,0,0,1.15.29,3.67,3.67,0,0,0,.75-.07c.23,0,.46-.1.69-.16v.65a3.46,3.46,0,0,1-.7.19,6.7,6.7,0,0,1-.85.05,2.89,2.89,0,0,1-1.53-.37,2.38,2.38,0,0,1-.92-1.08,4.1,4.1,0,0,1-.3-1.64A3.79,3.79,0,0,1,231.6,75a2.64,2.64,0,0,1,.55-1,2.35,2.35,0,0,1,.9-.64,3.19,3.19,0,0,1,1.24-.22,4.33,4.33,0,0,1,.89.09,3.23,3.23,0,0,1,.76.26l-.3.64A5.44,5.44,0,0,0,235,74,2.82,2.82,0,0,0,234.28,73.87Z"></path><path class="cls-11" d="M243.84,79.29h-.76v-2.8H240v2.8h-.76v-6H240v2.54h3.07V73.29h.76Z"></path><path class="cls-11" d="M135.35,89.17a2.21,2.21,0,0,0-.87.16,1.76,1.76,0,0,0-.66.48,2.45,2.45,0,0,0-.41.77,3.47,3.47,0,0,0-.14,1,3.33,3.33,0,0,0,.23,1.28,1.81,1.81,0,0,0,.69.84,2.07,2.07,0,0,0,1.15.3,3.51,3.51,0,0,0,.74-.07,5,5,0,0,0,.69-.17v.66a3.88,3.88,0,0,1-.69.18,5.21,5.21,0,0,1-.85.06,2.8,2.8,0,0,1-1.53-.38,2.3,2.3,0,0,1-.92-1.07,4,4,0,0,1-.31-1.64,4,4,0,0,1,.19-1.24,2.79,2.79,0,0,1,.56-1,2.44,2.44,0,0,1,.9-.63,3.17,3.17,0,0,1,1.23-.22,4.26,4.26,0,0,1,.89.09,3.32,3.32,0,0,1,.77.26l-.3.64a4.46,4.46,0,0,0-.62-.23A2.55,2.55,0,0,0,135.35,89.17Z"></path><path class="cls-11" d="M143.13,94.59h-3.35v-6h3.35v.66h-2.59v1.88H143v.65h-2.44v2.14h2.59Z"></path><path class="cls-11" d="M150.9,94.59H150l-3.21-5h0c0,.12,0,.28,0,.45s0,.37,0,.57,0,.4,0,.61v3.35h-.7v-6H147l3.2,5h0c0-.09,0-.22,0-.4s0-.37,0-.59,0-.41,0-.59V88.59h.7Z"></path><path class="cls-11" d="M156.13,94.59h-.76V89.25H153.5v-.66H158v.66h-1.86Z"></path><path class="cls-11" d="M164,94.59H160.6v-6H164v.66h-2.6v1.88h2.45v.65h-2.45v2.14H164Z"></path><path class="cls-11" d="M168.62,88.59a3.31,3.31,0,0,1,1.23.19,1.38,1.38,0,0,1,.72.57,1.81,1.81,0,0,1,.23,1,1.71,1.71,0,0,1-.17.79,1.49,1.49,0,0,1-.45.51,2.47,2.47,0,0,1-.58.3l1.65,2.69h-.89l-1.45-2.48h-1.19v2.48H167v-6Zm0,.65h-.86v2.23h.9a1.62,1.62,0,0,0,1.06-.29,1,1,0,0,0,.34-.85,1.07,1.07,0,0,0-.16-.63.9.9,0,0,0-.47-.35A2.59,2.59,0,0,0,168.58,89.24Z"></path></svg> 