<?xml version="1.0" encoding="UTF-8"?> <svg xmlns="http://www.w3.org/2000/svg" width="213" height="134" viewBox="0 0 213 134" fill="none"><path d="M0 66.456C0.284 67.024 0.639 67.805 1.065 68.799C1.491 69.793 2.556 71.852 4.26 74.976C5.964 78.1 7.81 81.082 9.798 83.922C11.786 86.762 14.555 90.17 18.105 94.146C21.655 98.122 25.347 101.885 29.181 105.435C33.015 108.985 37.772 112.464 43.452 115.872C49.132 119.28 54.954 122.262 60.918 124.818C66.882 127.374 73.84 129.362 81.792 130.782C89.744 132.202 97.98 132.983 106.5 133.125C115.02 133.267 123.256 132.486 131.208 130.782C139.16 129.078 146.189 127.019 152.295 124.605C158.401 122.191 164.152 119.28 169.548 115.872C174.944 112.464 179.701 108.914 183.819 105.222C187.937 101.53 191.629 97.909 194.895 94.359C198.161 90.809 200.93 87.259 203.202 83.709C205.474 80.159 207.32 77.248 208.74 74.976C210.16 72.704 211.225 70.645 211.935 68.799L213 66.456C212.858 65.888 212.503 65.107 211.935 64.113C211.367 63.119 210.302 61.131 208.74 58.149C207.178 55.167 205.332 52.185 203.202 49.203C201.072 46.221 198.303 42.742 194.895 38.766C191.487 34.79 187.795 31.098 183.819 27.69C179.843 24.282 175.086 20.803 169.548 17.253C164.01 13.703 158.188 10.721 152.082 8.307C145.976 5.893 139.018 3.905 131.208 2.343C123.398 0.781002 115.162 0 106.5 0C97.838 0 89.602 0.781002 81.792 2.343C73.982 3.905 66.953 5.893 60.705 8.307C54.457 10.721 48.706 13.703 43.452 17.253C38.198 20.803 33.441 24.282 29.181 27.69C24.921 31.098 21.229 34.79 18.105 38.766C14.981 42.742 12.212 46.221 9.798 49.203C7.384 52.185 5.538 55.167 4.26 58.149C2.982 61.131 1.917 63.19 1.065 64.326L0 66.456ZM66.669 66.456C66.669 55.522 70.503 46.15 78.171 38.34C85.839 30.53 95.282 26.625 106.5 26.625C117.718 26.625 127.161 30.53 134.829 38.34C142.497 46.15 146.402 55.522 146.544 66.456C146.686 77.39 142.781 86.833 134.829 94.785C126.877 102.737 117.434 106.642 106.5 106.5C95.566 106.358 86.123 102.453 78.171 94.785C70.219 87.117 66.385 77.674 66.669 66.456ZM79.875 66.456C79.875 73.84 82.502 80.159 87.756 85.413C93.01 90.667 99.258 93.223 106.5 93.081C113.742 92.939 119.99 90.383 125.244 85.413C130.498 80.443 133.125 74.124 133.125 66.456C133.125 58.788 130.498 52.54 125.244 47.712C119.99 42.884 113.742 40.257 106.5 39.831C99.258 39.405 93.01 42.032 87.756 47.712L106.5 66.456H79.875Z" fill="#0E698B"></path></svg> 