<?xml version="1.0" encoding="UTF-8"?> <svg xmlns="http://www.w3.org/2000/svg" width="164" height="164" viewBox="0 0 164 164" fill="none"><path fill-rule="evenodd" clip-rule="evenodd" d="M118.957 108.464C128.096 97.0397 133.561 82.5482 133.561 66.7804C133.561 29.8986 103.662 0 66.7804 0C29.8986 0 0 29.8986 0 66.7804C0 103.662 29.8986 133.561 66.7804 133.561C82.5482 133.561 97.0397 128.096 108.464 118.957L150.5 160.994C153.397 163.891 158.096 163.891 160.994 160.994C163.891 158.096 163.891 153.397 160.994 150.5L118.957 108.464ZM66.7804 118.795C38.0534 118.795 14.7656 95.5074 14.7656 66.7804C14.7656 38.0534 38.0534 14.7656 66.7804 14.7656C95.5074 14.7656 118.795 38.0534 118.795 66.7804C118.795 95.5074 95.5074 118.795 66.7804 118.795Z" fill="#0E698B"></path></svg> 