<?xml version="1.0" encoding="UTF-8"?> <svg xmlns="http://www.w3.org/2000/svg" xmlns:xlink="http://www.w3.org/1999/xlink" id="Layer_1" data-name="Layer 1" viewBox="0 0 62.26 61.6"><defs><style>.cls-1{fill:none;}.cls-2{clip-path:url(#clip-path);}.cls-3{fill:url(#linear-gradient);}.cls-4{clip-path:url(#clip-path-2);}.cls-5{fill:url(#linear-gradient-2);}.cls-6{clip-path:url(#clip-path-3);}.cls-7{fill:url(#linear-gradient-3);}.cls-8{fill:#fff;}.cls-9{fill:#d04b35;}</style><clipPath id="clip-path"><path class="cls-1" d="M14.57,7a28.31,28.31,0,0,0,3,48.37,9.38,9.38,0,0,1-3.42-12.15l9.64-19.33h0a63.06,63.06,0,0,1,6.92-10.34L27,9A9.37,9.37,0,0,0,14.57,7"></path></clipPath><linearGradient id="linear-gradient" x1="-53.72" y1="1177.13" x2="-52.72" y2="1177.13" gradientTransform="matrix(0, -49.9, -49.9, 0, 58757.36, -2625.6)" gradientUnits="userSpaceOnUse"><stop offset="0" stop-color="#7ac2d6"></stop><stop offset="0.01" stop-color="#7ac2d6"></stop><stop offset="0.14" stop-color="#76c1d5"></stop><stop offset="0.28" stop-color="#6abed1"></stop><stop offset="0.42" stop-color="#56b8ca"></stop><stop offset="0.55" stop-color="#3bb0c0"></stop><stop offset="0.57" stop-color="#37afbf"></stop><stop offset="1" stop-color="#37afbf"></stop></linearGradient><clipPath id="clip-path-2"><path class="cls-1" d="M58.91,33.23s0-.1,0-.15,0,.1,0,.15M23.78,23.89,14.14,43.22a9.38,9.38,0,0,0,3.42,12.15,28.08,28.08,0,0,0,13.13,3.25h0a28.35,28.35,0,0,0,28.19-25.4,9.4,9.4,0,0,1-9.34,8.37H30.69a6.54,6.54,0,0,1-1.34-.13,9.43,9.43,0,0,1-8.09-9.32c0-2.52,1.09-5.47,2.53-8.26Z"></path></clipPath><linearGradient id="linear-gradient-2" x1="-68.42" y1="1188.82" x2="-67.42" y2="1188.82" gradientTransform="matrix(45.77, 0, 0, -45.77, 3145.13, 54457.75)" gradientUnits="userSpaceOnUse"><stop offset="0" stop-color="#0e8cc3"></stop><stop offset="0.46" stop-color="#0e8cc3"></stop><stop offset="1" stop-color="#31a7d5"></stop></linearGradient><clipPath id="clip-path-3"><path class="cls-1" d="M14.57,7A9.38,9.38,0,0,1,27,9l3.73,4.61a62.16,62.16,0,0,1,6.91,10.33c1.43,2.79,2.53,5.74,2.53,8.26a9.43,9.43,0,0,1-8.1,9.32,6.34,6.34,0,0,1-1.32.13H49.57a9.39,9.39,0,0,0,9.35-8.52c.09-.92.14-1.85.14-2.8a28,28,0,0,0-.75-6.39A28.3,28.3,0,0,0,14.57,7"></path></clipPath><linearGradient id="linear-gradient-3" x1="-50.49" y1="1177.64" x2="-49.49" y2="1177.64" gradientTransform="matrix(0, -39.67, -39.67, 0, 46750.97, -1961.19)" gradientUnits="userSpaceOnUse"><stop offset="0" stop-color="#adcbec"></stop><stop offset="0.52" stop-color="#adcbec"></stop><stop offset="0.54" stop-color="#afccec"></stop><stop offset="0.69" stop-color="#c3d8f1"></stop><stop offset="0.84" stop-color="#cfdff3"></stop><stop offset="0.99" stop-color="#d3e1f4"></stop><stop offset="1" stop-color="#d3e1f4"></stop></linearGradient></defs><g class="cls-2"><rect class="cls-3" x="2.37" y="5.47" width="28.34" height="49.9"></rect></g><g class="cls-4"><rect class="cls-5" x="11.96" y="23.89" width="46.96" height="34.74"></rect></g><g class="cls-6"><rect class="cls-7" x="14.57" y="1.93" width="44.49" height="39.67"></rect></g><path class="cls-8" d="M37.63,23.89a62.86,62.86,0,0,0-6.91-10.33h0a63.06,63.06,0,0,0-6.92,10.34c-1.44,2.79-2.53,5.74-2.53,8.26a9.43,9.43,0,0,0,8.09,9.32,6.54,6.54,0,0,0,1.34.13h0a6.34,6.34,0,0,0,1.32-.13,9.43,9.43,0,0,0,8.1-9.32c0-2.52-1.1-5.47-2.53-8.26"></path><polygon class="cls-9" points="32.16 29.49 32.16 26 29.26 26 29.26 29.49 25.77 29.49 25.77 32.39 29.26 32.39 29.26 35.88 32.16 35.88 32.16 32.39 35.65 32.39 35.65 29.49 32.16 29.49"></polygon></svg> 