<?xml version="1.0" encoding="UTF-8"?> <svg xmlns="http://www.w3.org/2000/svg" xmlns:xlink="http://www.w3.org/1999/xlink" id="Layer_1" data-name="Layer 1" viewBox="0 0 279.15 130.61"><defs><style>.cls-1{fill:none;}.cls-2{clip-path:url(#clip-path);}.cls-3{fill:url(#linear-gradient);}.cls-4{clip-path:url(#clip-path-2);}.cls-5{fill:url(#linear-gradient-2);}.cls-6{clip-path:url(#clip-path-3);}.cls-7{fill:url(#linear-gradient-3);}.cls-8{clip-path:url(#clip-path-4);}.cls-9{fill:#fff;}.cls-10{fill:#d04b35;}.cls-11{fill:#0e8cc3;}</style><clipPath id="clip-path"><path class="cls-1" d="M37.55,28.77a21.24,21.24,0,0,0,2.24,36.28,7,7,0,0,1-2.57-9.11l7.23-14.5h0a47.2,47.2,0,0,1,5.19-7.76l-2.79-3.45a7,7,0,0,0-9.31-1.46"></path></clipPath><linearGradient id="linear-gradient" x1="-467.65" y1="1012.17" x2="-466.65" y2="1012.17" gradientTransform="matrix(0, -37.43, -37.43, 0, 37920.76, -17437.59)" gradientUnits="userSpaceOnUse"><stop offset="0" stop-color="#7ac2d6"></stop><stop offset="0.01" stop-color="#7ac2d6"></stop><stop offset="0.14" stop-color="#76c1d5"></stop><stop offset="0.28" stop-color="#6abed1"></stop><stop offset="0.42" stop-color="#56b8ca"></stop><stop offset="0.55" stop-color="#3bb0c0"></stop><stop offset="0.57" stop-color="#37afbf"></stop><stop offset="1" stop-color="#37afbf"></stop></linearGradient><clipPath id="clip-path-2"><path class="cls-1" d="M70.8,48.44s0-.07,0-.11,0,.08,0,.11m-26.35-7-7.23,14.5a7,7,0,0,0,2.57,9.11,21.09,21.09,0,0,0,9.85,2.44h0a21.27,21.27,0,0,0,21.14-19,7,7,0,0,1-7,6.28H49.64a5,5,0,0,1-1-.1,7.07,7.07,0,0,1-6.06-7,14.6,14.6,0,0,1,1.89-6.2Z"></path></clipPath><linearGradient id="linear-gradient-2" x1="-476.46" y1="1040.97" x2="-475.46" y2="1040.97" gradientTransform="matrix(34.33, 0, 0, -34.33, 16393.47, 35791.1)" gradientUnits="userSpaceOnUse"><stop offset="0" stop-color="#0e8cc3"></stop><stop offset="0.46" stop-color="#0e8cc3"></stop><stop offset="1" stop-color="#31a7d5"></stop></linearGradient><clipPath id="clip-path-3"><path class="cls-1" d="M37.55,28.77a7,7,0,0,1,9.31,1.46l2.8,3.46a47.2,47.2,0,0,1,5.18,7.75,14.48,14.48,0,0,1,1.9,6.2,7.07,7.07,0,0,1-6.08,7,4.62,4.62,0,0,1-1,.1H63.8a7,7,0,0,0,7-6.39,20.79,20.79,0,0,0,.11-2.1,21,21,0,0,0-.57-4.79,21.22,21.22,0,0,0-32.8-12.67"></path></clipPath><linearGradient id="linear-gradient-3" x1="-462.91" y1="1009.9" x2="-461.91" y2="1009.9" gradientTransform="matrix(0, -29.75, -29.75, 0, 30099.6, -13717.35)" gradientUnits="userSpaceOnUse"><stop offset="0" stop-color="#adcbec"></stop><stop offset="0.52" stop-color="#adcbec"></stop><stop offset="0.54" stop-color="#afccec"></stop><stop offset="0.69" stop-color="#c3d8f1"></stop><stop offset="0.84" stop-color="#cfdff3"></stop><stop offset="0.99" stop-color="#d3e1f4"></stop><stop offset="1" stop-color="#d3e1f4"></stop></linearGradient><clipPath id="clip-path-4"><rect class="cls-1" width="279.15" height="130.61"></rect></clipPath></defs><g class="cls-2"><rect class="cls-3" x="28.4" y="27.63" width="21.26" height="37.43"></rect></g><g class="cls-4"><rect class="cls-5" x="35.59" y="41.44" width="35.22" height="26.06"></rect></g><g class="cls-6"><rect class="cls-7" x="37.55" y="24.97" width="33.37" height="29.75"></rect></g><g class="cls-8"><path class="cls-9" d="M54.84,41.44a47.2,47.2,0,0,0-5.18-7.75h0a47.2,47.2,0,0,0-5.19,7.76,14.6,14.6,0,0,0-1.89,6.2,7.07,7.07,0,0,0,6.06,7,5,5,0,0,0,1,.1h0a4.62,4.62,0,0,0,1-.1,7.07,7.07,0,0,0,6.08-7,14.48,14.48,0,0,0-1.9-6.2"></path><polygon class="cls-10" points="50.74 45.64 50.74 43.02 48.56 43.02 48.56 45.64 45.95 45.64 45.95 47.81 48.56 47.81 48.56 50.43 50.74 50.43 50.74 47.81 53.36 47.81 53.36 45.64 50.74 45.64"></polygon><path class="cls-11" d="M98.25,57.28A10.83,10.83,0,0,1,87.17,46.23a10.83,10.83,0,0,1,11.08-11,11.33,11.33,0,0,1,2.81.35,10.94,10.94,0,0,1,2.53,1,10.13,10.13,0,0,1,2.14,1.58,10.47,10.47,0,0,1,1.66,2.08l-3.62,2.09A5.38,5.38,0,0,0,101.53,40a7.35,7.35,0,0,0-8.29,1.15,7,7,0,0,0-1.88,5,7,7,0,0,0,1.88,5,7.33,7.33,0,0,0,8.3,1.14,5.43,5.43,0,0,0,2.23-2.2l3.62,2.09a10.47,10.47,0,0,1-1.66,2.08,10.13,10.13,0,0,1-2.14,1.58,10.94,10.94,0,0,1-2.53,1,11.33,11.33,0,0,1-2.81.35"></path><polygon class="cls-11" points="119.16 52.85 125.87 52.85 125.87 56.85 114.97 56.85 114.97 35.61 119.16 35.61 119.16 52.85"></polygon><rect class="cls-11" x="132.7" y="35.61" width="4.19" height="21.25"></rect><polygon class="cls-11" points="158.53 35.61 162.71 35.61 162.71 56.85 159.53 56.85 150.42 43.86 150.42 56.85 146.23 56.85 146.23 35.61 149.42 35.61 158.53 48.57 158.53 35.61"></polygon><rect class="cls-11" x="172.25" y="35.61" width="4.19" height="21.25"></rect><path class="cls-11" d="M193.14,57.28a9.53,9.53,0,0,1-5.32-1.4,7.42,7.42,0,0,1-3-3.85l3.58-2.1a4.77,4.77,0,0,0,4.88,3.25,4.15,4.15,0,0,0,2.58-.64,1.94,1.94,0,0,0,.82-1.6,1.9,1.9,0,0,0-1-1.73,14.82,14.82,0,0,0-3.58-1.37,21.68,21.68,0,0,1-2.41-.85,10.52,10.52,0,0,1-2-1.12,5.06,5.06,0,0,1-2-4.38,5.59,5.59,0,0,1,2-4.58,7.39,7.39,0,0,1,4.95-1.73A8.08,8.08,0,0,1,200.25,40l-3.52,2a4.26,4.26,0,0,0-4.07-2.73,3.23,3.23,0,0,0-2,.59,1.87,1.87,0,0,0-.74,1.53,2,2,0,0,0,.81,1.64,12.27,12.27,0,0,0,3.22,1.34l1.46.48c.16.05.36.11.59.2l.78.32a5.9,5.9,0,0,1,1.33.64,8.59,8.59,0,0,1,1.09.82,3.79,3.79,0,0,1,.91,1.06,5.4,5.4,0,0,1,.57,1.32,6,6,0,0,1,.22,1.68,5.69,5.69,0,0,1-2.15,4.68,8.63,8.63,0,0,1-5.56,1.73"></path><path class="cls-11" d="M215.38,57.28a9.53,9.53,0,0,1-5.32-1.4A7.42,7.42,0,0,1,207,52l3.58-2.1a4.77,4.77,0,0,0,4.88,3.25,4.15,4.15,0,0,0,2.58-.64,1.94,1.94,0,0,0,.82-1.6,1.9,1.9,0,0,0-1-1.73,14.82,14.82,0,0,0-3.58-1.37,21.68,21.68,0,0,1-2.41-.85,10.52,10.52,0,0,1-2-1.12,5,5,0,0,1-2-4.38,5.59,5.59,0,0,1,2-4.58,7.38,7.38,0,0,1,5-1.73A8.11,8.11,0,0,1,222.49,40L219,42a4.23,4.23,0,0,0-4.06-2.73,3.23,3.23,0,0,0-2.05.59,1.88,1.88,0,0,0-.75,1.53,2,2,0,0,0,.82,1.64,12.27,12.27,0,0,0,3.22,1.34l1.46.48c.16.05.36.11.59.2l.77.32a5.8,5.8,0,0,1,1.34.64,8.59,8.59,0,0,1,1.09.82,3.79,3.79,0,0,1,.91,1.06,5,5,0,0,1,.56,1.32,6.19,6.19,0,0,1-1.92,6.36,8.63,8.63,0,0,1-5.56,1.73"></path></g><path class="cls-11" d="M137.37,80.62V79.29h-4.6v-6h.76v5.34h3V73.29h.75v5.34h.81v2Z"></path><path class="cls-11" d="M140.85,79.29v-6h3.35V74h-2.6v1.87h2.45v.65H141.6v2.15h2.6v.66Z"></path><path class="cls-11" d="M147.17,79.29v-6h.76v2.54H151V73.29h.75v6H151v-2.8h-3.1v2.8Z"></path><path class="cls-11" d="M157.16,79.29h-.76V74h-1.87v-.67H159V74h-1.86Z"></path><path class="cls-11" d="M161.78,79.29v-6h1.59a2.65,2.65,0,0,1,1.71.46,1.64,1.64,0,0,1,.54,1.31,2,2,0,0,1-.22.92,1.67,1.67,0,0,1-.75.71,3.17,3.17,0,0,1-1.43.27h-.68v2.33Zm.76-3h.6a3.19,3.19,0,0,0,1-.12,1.07,1.07,0,0,0,.56-.39,1.19,1.19,0,0,0,.19-.71,1.06,1.06,0,0,0-.37-.87,1.94,1.94,0,0,0-1.17-.28h-.76Z"></path><path class="cls-11" d="M172.57,79.29v-6h.76v6Zm.59-2.81v-.66h1.38v.66Zm2.89,2.81-2-3v-.2l1.89-2.77h.82l-2,2.89V76l2.16,3.27Z"></path><path class="cls-11" d="M179.81,79.38l-.28,0-.25-.07V78.6l.2,0,.2,0a.77.77,0,0,0,.42-.11.73.73,0,0,0,.24-.38,3.56,3.56,0,0,0,.13-.75c0-.25,0-.51.06-.75s0-.53.05-.83,0-.65.06-1.06,0-.9.07-1.49h3.58v6h-.75V74h-2.15c0,.4,0,.77-.06,1.1s0,.65-.05.94,0,.55-.05.79,0,.49-.06.72a4.28,4.28,0,0,1-.23,1.09,1.16,1.16,0,0,1-.43.6A1.25,1.25,0,0,1,179.81,79.38Z"></path><path class="cls-11" d="M187.59,79.29v-6h.76v3.29c0,.19,0,.4,0,.63s0,.44,0,.63,0,.33,0,.42h0l3.18-5h.81v6h-.75V76c0-.15,0-.31,0-.49s0-.35,0-.51,0-.32,0-.44a1.85,1.85,0,0,1,0-.29h0l-3.19,5Z"></path><path class="cls-11" d="M195.62,79.29v-6h.76v2.54h3.1V73.29h.76v6h-.76v-2.8h-3.1v2.8Z"></path><path class="cls-11" d="M203.54,79.29v-6h.75v3.29c0,.19,0,.4,0,.63s0,.44,0,.63,0,.33,0,.42h0l3.17-5h.82v6h-.76V76c0-.15,0-.31,0-.49s0-.35,0-.51,0-.32,0-.44,0-.23,0-.29h0l-3.19,5Z"></path><path class="cls-11" d="M214.74,79.29V76.42l.26.24a7,7,0,0,1-.95.29,4.78,4.78,0,0,1-.84.08,2.08,2.08,0,0,1-1.44-.43,1.68,1.68,0,0,1-.48-1.31v-2H212v1.89a1.21,1.21,0,0,0,.3.93,1.51,1.51,0,0,0,1,.27A4,4,0,0,0,215,76l-.21.43V73.29h.76v6Z"></path><path class="cls-11" d="M218.81,79.29v-6h3.35V74h-2.6v1.87H222v.65h-2.45v2.15h2.6v.66Z"></path><path class="cls-11" d="M227.71,79.37a3.05,3.05,0,0,1-1.58-.37,2.17,2.17,0,0,1-.93-1,3.93,3.93,0,0,1-.31-1.64,3.73,3.73,0,0,1,.34-1.66,2.48,2.48,0,0,1,1-1.07,3,3,0,0,1,1.54-.37,4.6,4.6,0,0,1,.84.08,3.56,3.56,0,0,1,.84.27l-.31.64a3,3,0,0,0-1.35-.33,2.13,2.13,0,0,0-1.13.29,1.81,1.81,0,0,0-.71.83,3.24,3.24,0,0,0-.24,1.32,2.61,2.61,0,0,0,.54,1.78,2,2,0,0,0,1.57.62,3.51,3.51,0,0,0,.72-.07,4.3,4.3,0,0,0,.75-.23v.7a4,4,0,0,1-.74.2A5.36,5.36,0,0,1,227.71,79.37Z"></path><path class="cls-11" d="M232.31,79.29v-6h.75v6Zm.58-2.81v-.66h1.38v.66Zm2.89,2.81-2-3v-.2l1.9-2.77h.81l-2,2.89V76l2.15,3.27Z"></path><path class="cls-11" d="M239.4,79.29v-6h.76v3.29c0,.19,0,.4,0,.63s0,.44,0,.63,0,.33,0,.42h0l3.17-5h.81v6h-.75V76c0-.15,0-.31,0-.49s0-.35,0-.51,0-.32,0-.44,0-.23,0-.29h0l-3.19,5Z"></path><path class="cls-11" d="M246.86,79.29,249,75.88v.57l-2-3.16h.84l1.65,2.64h-.37l1.67-2.64h.8l-2.05,3.14v-.57l2.19,3.43h-.86l-1.76-2.9h.35l-1.79,2.89Z"></path><path class="cls-11" d="M132.77,94.59v-6h.76v3.29c0,.19,0,.39,0,.62s0,.44,0,.63,0,.33,0,.42h0l3.17-5h.82v6h-.76V91.33c0-.15,0-.32,0-.49s0-.35,0-.52,0-.31,0-.44,0-.22,0-.28h0l-3.19,5Z"></path><path class="cls-11" d="M143.33,94.67a3.05,3.05,0,0,1-1.58-.37,2.24,2.24,0,0,1-.93-1.06,3.9,3.9,0,0,1-.31-1.64,3.71,3.71,0,0,1,.34-1.65,2.54,2.54,0,0,1,1-1.07,3,3,0,0,1,1.54-.38,4.8,4.8,0,0,1,.85.08,4.06,4.06,0,0,1,.83.28l-.31.64a2.67,2.67,0,0,0-.68-.25,3.14,3.14,0,0,0-.67-.08,2.13,2.13,0,0,0-1.13.28,1.85,1.85,0,0,0-.71.84,3.23,3.23,0,0,0-.24,1.31,2.64,2.64,0,0,0,.54,1.79,2,2,0,0,0,1.58.62,4.38,4.38,0,0,0,.71-.07,4.68,4.68,0,0,0,.76-.23v.69a3.5,3.5,0,0,1-.74.2A4.5,4.5,0,0,1,143.33,94.67Z"></path><path class="cls-11" d="M150.28,94.67a3.05,3.05,0,0,1-1.58-.37,2.31,2.31,0,0,1-.94-1.06,4.07,4.07,0,0,1-.3-1.64A3.71,3.71,0,0,1,147.8,90a2.48,2.48,0,0,1,1-1.07,3,3,0,0,1,1.53-.38,4.63,4.63,0,0,1,.85.08,3.87,3.87,0,0,1,.83.28l-.3.64a2.82,2.82,0,0,0-.68-.25,3.14,3.14,0,0,0-.67-.08,2.13,2.13,0,0,0-1.13.28,1.79,1.79,0,0,0-.71.84,3.23,3.23,0,0,0-.24,1.31,2.64,2.64,0,0,0,.54,1.79,2,2,0,0,0,1.57.62,4.39,4.39,0,0,0,.72-.07,4.3,4.3,0,0,0,.75-.23v.69a3.35,3.35,0,0,1-.74.2A4.32,4.32,0,0,1,150.28,94.67Z"></path><path class="cls-11" d="M154.93,94.68l-.27,0a1.1,1.1,0,0,1-.26-.06V93.9l.21,0,.2,0a.71.71,0,0,0,.41-.11.69.69,0,0,0,.25-.38,3.69,3.69,0,0,0,.13-.75l.06-.76c0-.25,0-.52.05-.82s0-.65.06-1.06,0-.91.06-1.49h3.59v6h-.76V89.25h-2.15q0,.61-.06,1.11c0,.34,0,.65,0,.93s0,.56,0,.8l-.06.72a4.38,4.38,0,0,1-.23,1.09,1.1,1.1,0,0,1-1.14.78Z"></path><path class="cls-11" d="M162.72,94.59v-6h3.35v.66h-2.59v1.88h2.44v.65h-2.44v2.14h2.59v.67Z"></path><path class="cls-11" d="M168.67,95.91v-2h.58a4.71,4.71,0,0,0,.4-.65,4.51,4.51,0,0,0,.29-.79,6.84,6.84,0,0,0,.16-1l0-.42c0-.14,0-.31,0-.5s0-.45,0-.76,0-.71.06-1.19h3.59v5.33h.78v2h-.72V94.59h-4.51v1.32Zm1.43-2h3V89.25h-2.18c0,.27,0,.53,0,.78s0,.51,0,.75,0,.46,0,.67a7,7,0,0,1-.14,1,5.22,5.22,0,0,1-.23.81A3,3,0,0,1,170.1,93.92Z"></path><path class="cls-11" d="M179.62,94.67a2.88,2.88,0,0,1-1.13-.21,2.34,2.34,0,0,1-.85-.61,2.8,2.8,0,0,1-.53-1,4.35,4.35,0,0,1-.18-1.3,3.8,3.8,0,0,1,.32-1.65,2.27,2.27,0,0,1,.93-1,3,3,0,0,1,2.89,0,2.39,2.39,0,0,1,.92,1.06,4,4,0,0,1,.32,1.66,4.08,4.08,0,0,1-.19,1.3,2.65,2.65,0,0,1-.52,1,2.26,2.26,0,0,1-.85.61A2.88,2.88,0,0,1,179.62,94.67Zm0-.65a1.66,1.66,0,0,0,1.41-.63,3.65,3.65,0,0,0,0-3.62,1.68,1.68,0,0,0-1.4-.62,1.72,1.72,0,0,0-1.42.62,2.93,2.93,0,0,0-.49,1.81,3.74,3.74,0,0,0,.22,1.33,1.73,1.73,0,0,0,.64.82A1.84,1.84,0,0,0,179.62,94Z"></path><path class="cls-11" d="M185.32,94.59v-6H187a3.48,3.48,0,0,1,1.7.33,1.23,1.23,0,0,1,.57,1.16,1.38,1.38,0,0,1-.13.62,1.12,1.12,0,0,1-.38.46,1.48,1.48,0,0,1-.63.24v0a2.22,2.22,0,0,1,.69.21,1.25,1.25,0,0,1,.48.46,1.43,1.43,0,0,1,.18.76,1.64,1.64,0,0,1-.26.93,1.53,1.53,0,0,1-.71.58,2.91,2.91,0,0,1-1.12.2Zm.76-3.45h1.11a1.72,1.72,0,0,0,1.06-.24.93.93,0,0,0,.28-.74.75.75,0,0,0-.35-.71,2.22,2.22,0,0,0-1.11-.21h-1Zm0,2.81h1.22a1.6,1.6,0,0,0,1.11-.31,1.14,1.14,0,0,0,.31-.82,1.1,1.1,0,0,0-.14-.55.92.92,0,0,0-.46-.37,2.59,2.59,0,0,0-.88-.13h-1.16Z"></path><path class="cls-11" d="M196.4,94.59l-.72-1.86H193.3l-.71,1.86h-.76l2.34-6h.68l2.34,6Zm-1.62-4.35s0-.12-.08-.24-.08-.24-.11-.37l-.09-.28-.09.34c0,.11-.06.22-.09.31l-.08.24-.68,1.82h1.9Z"></path><path class="cls-11" d="M199.9,94.59v-6h.75v2.54h3.1V88.59h.76v6h-.76v-2.8h-3.1v2.8Z"></path><path class="cls-11" d="M207.81,94.59v-6h.76v3.29c0,.19,0,.39,0,.62s0,.44,0,.63,0,.33,0,.42h0l3.18-5h.81v6h-.75V90.84c0-.18,0-.35,0-.52s0-.31,0-.44,0-.22,0-.28h0l-3.19,5Z"></path><path class="cls-11" d="M215.83,94.59v-6h.76v3.29c0,.19,0,.39,0,.62s0,.44,0,.63,0,.33,0,.42h0l3.18-5h.81v6h-.75V91.33c0-.15,0-.32,0-.49s0-.35,0-.52,0-.31,0-.44a1.7,1.7,0,0,1,0-.28h0l-3.19,5Zm2.38-6.5a1.34,1.34,0,0,1-.91-.28,1.17,1.17,0,0,1-.41-.8h.69a.65.65,0,0,0,.2.43.59.59,0,0,0,.43.14.6.6,0,0,0,.43-.14.69.69,0,0,0,.19-.43h.69a1.13,1.13,0,0,1-.4.8A1.36,1.36,0,0,1,218.21,88.09Z"></path></svg> 